<svg width="780" height="850" xmlns="http://www.w3.org/2000/svg" class="st45">
 <style type="text/css">
  <![CDATA[
		.st1 {visibility:visible}
		.st2 {fill:#5b9bd5;fill-opacity:0.22;filter:url(#filter_2);stroke:#5b9bd5;stroke-opacity:0.22}
		.st3 {fill:#5b9bd5;stroke:#c7c8c8;stroke-width:0.25}
		.st4 {stroke:#5b9bd5;stroke-dasharray:7,5;stroke-linecap:round;stroke-linejoin:round;stroke-width:1}
		.st5 {fill:#feffff;font-family:Calibri;font-size:1.00001em;font-weight:bold}
		.st6 {fill:#5b9bd5;fill-opacity:0.22;filter:url(#filter_2)}
		.st7 {fill:none;filter:url(#filter_2);stroke:#5b9bd5;stroke-opacity:0.22}
		.st8 {fill:#41719c}
		.st9 {stroke:#c7c8c8;stroke-width:0.25}
		.st10 {fill:#1e4a73;font-family:Calibri;font-size:0.833336em}
		.st11 {font-family:黑体;font-size:1em}
		.st12 {fill:#759fcc}
		.st13 {stroke:#ebeff5;stroke-width:0.75}
		.st14 {fill:#2c4f76;font-family:Calibri;font-size:0.833336em}
		.st15 {fill:#ed7d31}
		.st16 {fill:#1e4a73;font-family:黑体;font-size:0.833336em}
		.st17 {fill:#c00000}
		.st18 {marker-end:url(#mrkr4-114);stroke:#5b9bd5;stroke-linecap:round;stroke-linejoin:round;stroke-width:1}
		.st19 {fill:#5b9bd5;fill-opacity:1;stroke:#5b9bd5;stroke-opacity:1;stroke-width:0.23584905660377}
		.st20 {fill:#ffffff;stroke:none;stroke-linecap:butt}
		.st21 {fill:#4f87bb;font-family:黑体;font-size:0.666664em}
		.st22 {fill:#003232;font-family:Calibri;font-size:1em}
		.st23 {fill:#ffffff;stroke:none;stroke-linecap:butt;stroke-width:7.2}
		.st24 {fill:#4f87bb;font-family:Calibri;font-size:0.666664em}
		.st25 {fill:#ffffff;stroke:#c7c8c8;stroke-width:0.25}
		.st26 {fill:#0070c0;font-family:黑体;font-size:0.75em}
		.st27 {font-family:Calibri;font-size:1em}
		.st28 {font-size:1em}
		.st29 {font-family:Calibri;font-size:1em;font-weight:bold}
		.st30 {fill:#ff0000;font-size:1em}
		.st31 {fill:#ff0000;font-family:Calibri;font-size:1em}
		.st32 {fill:#70ad47;font-family:Calibri;font-size:1em;font-weight:bold}
		.st33 {fill:#bdd0e9;fill-opacity:0.22;filter:url(#filter_2);stroke:#bdd0e9;stroke-opacity:0.22}
		.st34 {fill:#2e75b5;font-family:黑体;font-size:0.75em}
		.st35 {fill:#1e4a73;font-family:Calibri;font-size:0.499992em}
		.st36 {fill:#2c4f76;font-family:Calibri;font-size:0.499992em}
		.st37 {font-size:1em;font-weight:bold}
		.st38 {fill:#feffff;font-family:Calibri;font-size:0.833336em}
		.st39 {fill:#70ad47;stroke:#c7c8c8;stroke-width:0.25}
		.st40 {fill:#ffffff;font-family:Calibri;font-size:0.833336em}
		.st41 {fill:#ffffff;stroke:#41719c;stroke-width:0.75}
		.st42 {fill:#41719c;font-family:黑体;font-size:0.75em}
		.st43 {fill:#5b9bd5;fill-opacity:0.25;filter:url(#filter_2);stroke:#5b9bd5;stroke-opacity:0.25}
		.st44 {fill:#4f87bb;stroke:#40709c;stroke-width:0.75}
		.st45 {fill:none;fill-rule:evenodd;font-size:12px;overflow:visible;stroke-linecap:square;stroke-miterlimit:3}
	]]>
 </style>
 <defs>
  <g id="lend4">
   <path id="svg_1" d="m2,1l-2,-1l2,-1l0,2"/>
  </g>
 </defs>

 <g>
  <title>页-1</title>
  <g id="group1-1">
   <title transform="translate(147.40199279785156,-1015.6500244140625) ">参与者生命线</title>
   <desc transform="translate(147.40199279785156,-1015.6500244140625) ">ssl_client</desc>
   <g id="shape2-2">
    <title transform="translate(14.173199653625488,0) translate(147.40199279785156,-1015.6500244140625) ">工作表.2</title>
    <g class="st1" transform="matrix(1,0,0,1,0.345598,1.97279) " id="shadow2-3">
     <rect id="svg_3" class="st2" height="25.5118" width="51.0236" y="113.389976" x="161.575192"/>
    </g>
    <rect id="svg_4" class="st3" height="25.5118" width="51.0236" y="113.389976" x="161.575192"/>
   </g>
   <g id="shape3-7">
    <title transform="translate(31.181100845336914,-29.055099487304688) translate(147.40199279785156,-1015.6500244140625) ">工作表.3</title>
    <g class="st1" transform="matrix(1,0,0,1,0.345598,1.97279) " id="shadow3-8">
     <path id="svg_5" class="st2" d="m181.983094,109.844876l0,-17.01l0,6.81l-3.4,0l0,-13.61l1.7,-1.7l13.61,0l1.7,1.7l0,13.61l-3.4,0l0,-6.81l0,17.01l-5.11,0l0,-13.61l0,13.61l-5.1,0zm8.51,-30.61a3.40157,3.40157 -180 1 0 -6.81,0a3.40157,3.40157 -180 1 0 6.81,0z"/>
    </g>
    <path id="svg_6" class="st3" d="m181.983094,109.844876l0,-17.01l0,6.81l-3.4,0l0,-13.61l1.7,-1.7l13.61,0l1.7,1.7l0,13.61l-3.4,0l0,-6.81l0,17.01l-5.11,0l0,-13.61l0,13.61l-5.1,0zm8.51,-30.61a3.40157,3.40157 -180 1 0 -6.81,0a3.40157,3.40157 -180 1 0 6.81,0z"/>
   </g>
   <g id="shape4-12">
    <title transform="translate(26.45669937133789,714.93798828125) translate(147.40199279785156,-1015.6500244140625) ">工作表.4</title>
    <g class="st1" transform="matrix(1,0,0,1,0.345598,1.97279) " id="shadow4-13"/>
   </g>
   <g transform="rotate(90 1341.6419677734375,138.90002441406264) " id="shape5-17">
    <title transform="translate(1194.239990234375,1154.550048828125) translate(147.40199279785156,-1015.6500244140625) ">工作表.5</title>
    <path id="svg_7" class="st4" d="m1341.641983,1293.450024l697.32,0"/>
   </g>
   <g id="shape1-20">
    <g class="st1" transform="matrix(1,0,0,1,0.345598,1.97279) " id="shadow1-21">
     <rect id="svg_8" class="st2" height="25.5118" width="79.3701" y="113.389976" x="147.401993"/>
    </g>
    <rect id="svg_9" class="st3" height="25.5118" width="79.3701" y="113.389976" x="147.401993"/>
    <text id="svg_10" class="st5" y="129.749976" x="164.061993">ssl_client</text>
   </g>
  </g>
  <g id="group6-26">
   <title transform="translate(538.5830078125,-1015.6500244140625) ">对象生命线</title>
   <desc transform="translate(538.5830078125,-1015.6500244140625) ">ssl_server</desc>
   <g id="shape7-27">
    <title transform="translate(14.173199653625488,0) translate(538.5830078125,-1015.6500244140625) ">工作表.7</title>
    <g class="st1" transform="matrix(1,0,0,1,0.345598,1.97279) " id="shadow7-28">
     <rect id="svg_11" class="st2" height="25.5118" width="51.0236" y="113.389976" x="552.756207"/>
    </g>
    <rect id="svg_12" class="st3" height="25.5118" width="51.0236" y="113.389976" x="552.756207"/>
   </g>
   <g id="shape8-32">
    <title transform="translate(31.181100845336914,-29.055099487304688) translate(538.5830078125,-1015.6500244140625) ">工作表.8</title>
    <g class="st1" transform="matrix(1,0,0,1,0.345598,1.97279) " id="shadow8-33">
     <path id="svg_13" class="st2" d="m578.264109,109.844876a0,0 0 1 1 0,0a0,0 0 1 1 0,0z"/>
    </g>
    <path id="svg_14" class="st3" d="m578.264109,109.844876a0,0 0 1 1 0,0a0,0 0 1 1 0,0z"/>
   </g>
   <g id="shape9-37">
    <title transform="translate(26.45669937133789,714.93798828125) translate(538.5830078125,-1015.6500244140625) ">工作表.9</title>
    <g class="st1" transform="matrix(1,0,0,1,0.345598,1.97279) " id="shadow9-38"/>
   </g>
   <g transform="rotate(90 1732.822998046875,138.90002441406264) " id="shape10-42">
    <title transform="translate(1194.239990234375,1154.550048828125) translate(538.5830078125,-1015.6500244140625) ">工作表.10</title>
    <path id="svg_15" class="st4" d="m1732.822998,1293.450024l697.32,0"/>
   </g>
   <g id="shape6-45">
    <g class="st1" transform="matrix(1,0,0,1,0.345598,1.97279) " id="shadow6-46">
     <rect id="svg_16" class="st2" height="25.5118" width="79.3701" y="113.389976" x="538.583008"/>
    </g>
    <rect id="svg_17" class="st3" height="25.5118" width="79.3701" y="113.389976" x="538.583008"/>
    <text id="svg_18" class="st5" y="129.749976" x="553.483008">ssl_server</text>
   </g>
  </g>
  <g id="group12-51">
   <title transform="translate(35.433101654052734,-1034.0799560546875) ">密钥</title>
   <desc transform="translate(35.433101654052734,-1034.0799560546875) ">Client 私钥</desc>
   <g id="shape13-52">
    <title transform="translate(10.237700462341309,0) translate(35.433101654052734,-1034.0799560546875) ">工作表.13</title>
    <g class="st1" transform="matrix(1,0,0,1,0.345598,1.97279) " id="shadow13-53">
     <path id="svg_19" class="st6" d="m60.630802,92.520044c0,-4.13 -3.35,-7.48 -7.48,-7.48c-4.13,0 -7.48,3.35 -7.48,7.48c0,3.25 2.08,6.01 4.99,7.04l0,18.98l2.52,1.93l2.46,-1.93l0,-1.99l0.67,0l0,-3.22l-0.72,-0.57l0,-1.3l0.72,-0.17l0,-1.97l-0.8,-0.88l0.8,-0.56l0,-1.66l-0.72,-0.24l-0.05,-2l0.77,-0.2l0,-2.12l-0.67,-0.4l0,-1.7c2.9,-1.03 4.99,-3.79 4.99,-7.04zm-6.55,-5.09a0.79782,0.79782 -180 1 0 -1.59564,0a0.79782,0.79782 -180 1 0 1.59564,0z"/>
     <path id="svg_20" class="st7" d="m60.630802,92.520044c0,-4.13 -3.35,-7.48 -7.48,-7.48c-4.13,0 -7.48,3.35 -7.48,7.48c0,3.25 2.08,6.01 4.99,7.04l0,18.98l2.52,1.93l2.46,-1.93l0,-1.99l0.67,0l0,-3.22l-0.72,-0.57l0,-1.3l0.72,-0.17l0,-1.97l-0.8,-0.88l0.8,-0.56l0,-1.66l-0.72,-0.24l-0.05,-2l0.77,-0.2l0,-2.12l-0.67,-0.4l0,-1.7c2.9,-1.03 4.99,-3.79 4.99,-7.04"/>
     <path id="svg_21" class="st7" d="m52.190802,99.810044l0,18.03"/>
     <path id="svg_22" class="st7" d="m54.080802,87.430044a0.79782,0.79782 -180 1 0 -1.59564,0a0.79782,0.79782 -180 1 0 1.59564,0"/>
    </g>
    <path id="svg_23" class="st8" d="m60.630802,92.520044c0,-4.13 -3.35,-7.48 -7.48,-7.48c-4.13,0 -7.48,3.35 -7.48,7.48c0,3.25 2.08,6.01 4.99,7.04l0,18.98l2.52,1.93l2.46,-1.93l0,-1.99l0.67,0l0,-3.22l-0.72,-0.57l0,-1.3l0.72,-0.17l0,-1.97l-0.8,-0.88l0.8,-0.56l0,-1.66l-0.72,-0.24l-0.05,-2l0.77,-0.2l0,-2.12l-0.67,-0.4l0,-1.7c2.9,-1.03 4.99,-3.79 4.99,-7.04zm-6.55,-5.09a0.79782,0.79782 -180 1 0 -1.59564,0a0.79782,0.79782 -180 1 0 1.59564,0z"/>
    <path id="svg_24" class="st9" d="m60.630802,92.520044c0,-4.13 -3.35,-7.48 -7.48,-7.48c-4.13,0 -7.48,3.35 -7.48,7.48c0,3.25 2.08,6.01 4.99,7.04l0,18.98l2.52,1.93l2.46,-1.93l0,-1.99l0.67,0l0,-3.22l-0.72,-0.57l0,-1.3l0.72,-0.17l0,-1.97l-0.8,-0.88l0.8,-0.56l0,-1.66l-0.72,-0.24l-0.05,-2l0.77,-0.2l0,-2.12l-0.67,-0.4l0,-1.7c2.9,-1.03 4.99,-3.79 4.99,-7.04"/>
    <path id="svg_25" class="st9" d="m52.190802,99.810044l0,18.03"/>
    <path id="svg_26" class="st9" d="m54.080802,87.430044a0.79782,0.79782 -180 1 0 -1.59564,0a0.79782,0.79782 -180 1 0 1.59564,0"/>
   </g>
   <g id="shape12-64">
    <g class="st1" transform="matrix(1,0,0,1,0.345598,1.97279) " id="shadow12-65"/>
    <text id="svg_27" class="st10" y="133.470044" x="41.403102">Client
     <tspan id="svg_28" class="st11" dy="1.298em" x="43.153102">私钥</tspan></text>
   </g>
  </g>
  <g id="group14-68">
   <title transform="translate(70.86609649658203,-1034.0799560546875) ">密钥.14</title>
   <desc transform="translate(70.86609649658203,-1034.0799560546875) ">Client 公钥</desc>
   <g id="shape15-69">
    <title transform="translate(10.237700462341309,0) translate(70.86609649658203,-1034.0799560546875) ">工作表.15</title>
    <path id="svg_29" class="st12" d="m96.063797,92.520044c0,-4.13 -3.35,-7.48 -7.48,-7.48c-4.13,0 -7.48,3.35 -7.48,7.48c0,3.25 2.08,6.01 4.99,7.04l0,18.98l2.52,1.93l2.46,-1.93l0,-1.99l0.67,0l0,-3.22l-0.72,-0.57l0,-1.3l0.72,-0.17l0,-1.97l-0.8,-0.88l0.8,-0.56l0,-1.66l-0.72,-0.24l-0.05,-2l0.77,-0.2l0,-2.12l-0.67,-0.4l0,-1.7c2.9,-1.03 4.99,-3.79 4.99,-7.04zm-6.55,-5.09a0.79782,0.79782 -180 1 0 -1.59564,0a0.79782,0.79782 -180 1 0 1.59564,0z"/>
    <path id="svg_30" class="st13" d="m96.063797,92.520044c0,-4.13 -3.35,-7.48 -7.48,-7.48c-4.13,0 -7.48,3.35 -7.48,7.48c0,3.25 2.08,6.01 4.99,7.04l0,18.98l2.52,1.93l2.46,-1.93l0,-1.99l0.67,0l0,-3.22l-0.72,-0.57l0,-1.3l0.72,-0.17l0,-1.97l-0.8,-0.88l0.8,-0.56l0,-1.66l-0.72,-0.24l-0.05,-2l0.77,-0.2l0,-2.12l-0.67,-0.4l0,-1.7c2.9,-1.03 4.99,-3.79 4.99,-7.04"/>
    <path id="svg_31" class="st13" d="m87.623797,99.810044l0,18.03"/>
    <path id="svg_32" class="st13" d="m89.513797,87.430044a0.79782,0.79782 -180 1 0 -1.59564,0a0.79782,0.79782 -180 1 0 1.59564,0"/>
   </g>
   <g id="shape14-74">
    <text id="svg_33" class="st14" y="133.470044" x="76.836096">Client
     <tspan id="svg_34" class="st11" dy="1.298em" x="78.586096">公钥</tspan></text>
   </g>
  </g>
  <g id="group16-77">
   <title transform="translate(644.8820190429688,-1028.4100341796875) ">密钥.16</title>
   <desc transform="translate(644.8820190429688,-1028.4100341796875) ">公钥</desc>
   <g id="shape17-78">
    <title transform="translate(10.237700462341309,0) translate(644.8820190429688,-1028.4100341796875) ">工作表.17</title>
    <g class="st1" transform="matrix(1,0,0,1,0.345598,1.97279) " id="shadow17-79">
     <path id="svg_35" class="st6" d="m670.07972,98.189966c0,-4.13 -3.35,-7.48 -7.48,-7.48c-4.13,0 -7.48,3.35 -7.48,7.48c0,3.25 2.08,6.01 4.99,7.04l0,18.98l2.52,1.93l2.46,-1.93l0,-1.99l0.67,0l0,-3.22l-0.72,-0.57l0,-1.3l0.72,-0.17l0,-1.97l-0.8,-0.88l0.8,-0.56l0,-1.66l-0.72,-0.24l-0.05,-2l0.77,-0.2l0,-2.12l-0.67,-0.4l0,-1.7c2.9,-1.03 4.99,-3.79 4.99,-7.04zm-6.55,-5.09a0.79782,0.79782 -180 1 0 -1.59564,0a0.79782,0.79782 -180 1 0 1.59564,0z"/>
     <path id="svg_36" class="st7" d="m670.07972,98.189966c0,-4.13 -3.35,-7.48 -7.48,-7.48c-4.13,0 -7.48,3.35 -7.48,7.48c0,3.25 2.08,6.01 4.99,7.04l0,18.98l2.52,1.93l2.46,-1.93l0,-1.99l0.67,0l0,-3.22l-0.72,-0.57l0,-1.3l0.72,-0.17l0,-1.97l-0.8,-0.88l0.8,-0.56l0,-1.66l-0.72,-0.24l-0.05,-2l0.77,-0.2l0,-2.12l-0.67,-0.4l0,-1.7c2.9,-1.03 4.99,-3.79 4.99,-7.04"/>
     <path id="svg_37" class="st7" d="m661.63972,105.479966l0,18.03"/>
     <path id="svg_38" class="st7" d="m663.52972,93.099966a0.79782,0.79782 -180 1 0 -1.59564,0a0.79782,0.79782 -180 1 0 1.59564,0"/>
    </g>
    <path id="svg_39" class="st15" d="m670.07972,98.189966c0,-4.13 -3.35,-7.48 -7.48,-7.48c-4.13,0 -7.48,3.35 -7.48,7.48c0,3.25 2.08,6.01 4.99,7.04l0,18.98l2.52,1.93l2.46,-1.93l0,-1.99l0.67,0l0,-3.22l-0.72,-0.57l0,-1.3l0.72,-0.17l0,-1.97l-0.8,-0.88l0.8,-0.56l0,-1.66l-0.72,-0.24l-0.05,-2l0.77,-0.2l0,-2.12l-0.67,-0.4l0,-1.7c2.9,-1.03 4.99,-3.79 4.99,-7.04zm-6.55,-5.09a0.79782,0.79782 -180 1 0 -1.59564,0a0.79782,0.79782 -180 1 0 1.59564,0z"/>
    <path id="svg_40" class="st9" d="m670.07972,98.189966c0,-4.13 -3.35,-7.48 -7.48,-7.48c-4.13,0 -7.48,3.35 -7.48,7.48c0,3.25 2.08,6.01 4.99,7.04l0,18.98l2.52,1.93l2.46,-1.93l0,-1.99l0.67,0l0,-3.22l-0.72,-0.57l0,-1.3l0.72,-0.17l0,-1.97l-0.8,-0.88l0.8,-0.56l0,-1.66l-0.72,-0.24l-0.05,-2l0.77,-0.2l0,-2.12l-0.67,-0.4l0,-1.7c2.9,-1.03 4.99,-3.79 4.99,-7.04"/>
    <path id="svg_41" class="st9" d="m661.63972,105.479966l0,18.03"/>
    <path id="svg_42" class="st9" d="m663.52972,93.099966a0.79782,0.79782 -180 1 0 -1.59564,0a0.79782,0.79782 -180 1 0 1.59564,0"/>
   </g>
   <g id="shape16-90">
    <g class="st1" transform="matrix(1,0,0,1,0.345598,1.97279) " id="shadow16-91"/>
    <text id="svg_43" class="st16" y="140.129966" x="652.602019">公钥</text>
   </g>
  </g>
  <g id="group18-93">
   <title transform="translate(686.468994140625,-1028.4100341796875) ">密钥.18</title>
   <desc transform="translate(686.468994140625,-1028.4100341796875) ">私钥</desc>
   <g id="shape19-94">
    <title transform="translate(10.237700462341309,0) translate(686.468994140625,-1028.4100341796875) ">工作表.19</title>
    <g class="st1" transform="matrix(1,0,0,1,0.345598,1.97279) " id="shadow19-95">
     <path id="svg_44" class="st6" d="m711.666695,98.189966c0,-4.13 -3.35,-7.48 -7.48,-7.48c-4.13,0 -7.48,3.35 -7.48,7.48c0,3.25 2.08,6.01 4.99,7.04l0,18.98l2.52,1.93l2.46,-1.93l0,-1.99l0.67,0l0,-3.22l-0.72,-0.57l0,-1.3l0.72,-0.17l0,-1.97l-0.8,-0.88l0.8,-0.56l0,-1.66l-0.72,-0.24l-0.05,-2l0.77,-0.2l0,-2.12l-0.67,-0.4l0,-1.7c2.9,-1.03 4.99,-3.79 4.99,-7.04zm-6.55,-5.09a0.79782,0.79782 -180 1 0 -1.59564,0a0.79782,0.79782 -180 1 0 1.59564,0z"/>
     <path id="svg_45" class="st7" d="m711.666695,98.189966c0,-4.13 -3.35,-7.48 -7.48,-7.48c-4.13,0 -7.48,3.35 -7.48,7.48c0,3.25 2.08,6.01 4.99,7.04l0,18.98l2.52,1.93l2.46,-1.93l0,-1.99l0.67,0l0,-3.22l-0.72,-0.57l0,-1.3l0.72,-0.17l0,-1.97l-0.8,-0.88l0.8,-0.56l0,-1.66l-0.72,-0.24l-0.05,-2l0.77,-0.2l0,-2.12l-0.67,-0.4l0,-1.7c2.9,-1.03 4.99,-3.79 4.99,-7.04"/>
     <path id="svg_46" class="st7" d="m703.226695,105.479966l0,18.03"/>
     <path id="svg_47" class="st7" d="m705.116695,93.099966a0.79782,0.79782 -180 1 0 -1.59564,0a0.79782,0.79782 -180 1 0 1.59564,0"/>
    </g>
    <path id="svg_48" class="st17" d="m711.666695,98.189966c0,-4.13 -3.35,-7.48 -7.48,-7.48c-4.13,0 -7.48,3.35 -7.48,7.48c0,3.25 2.08,6.01 4.99,7.04l0,18.98l2.52,1.93l2.46,-1.93l0,-1.99l0.67,0l0,-3.22l-0.72,-0.57l0,-1.3l0.72,-0.17l0,-1.97l-0.8,-0.88l0.8,-0.56l0,-1.66l-0.72,-0.24l-0.05,-2l0.77,-0.2l0,-2.12l-0.67,-0.4l0,-1.7c2.9,-1.03 4.99,-3.79 4.99,-7.04zm-6.55,-5.09a0.79782,0.79782 -180 1 0 -1.59564,0a0.79782,0.79782 -180 1 0 1.59564,0z"/>
    <path id="svg_49" class="st9" d="m711.666695,98.189966c0,-4.13 -3.35,-7.48 -7.48,-7.48c-4.13,0 -7.48,3.35 -7.48,7.48c0,3.25 2.08,6.01 4.99,7.04l0,18.98l2.52,1.93l2.46,-1.93l0,-1.99l0.67,0l0,-3.22l-0.72,-0.57l0,-1.3l0.72,-0.17l0,-1.97l-0.8,-0.88l0.8,-0.56l0,-1.66l-0.72,-0.24l-0.05,-2l0.77,-0.2l0,-2.12l-0.67,-0.4l0,-1.7c2.9,-1.03 4.99,-3.79 4.99,-7.04"/>
    <path id="svg_50" class="st9" d="m703.226695,105.479966l0,18.03"/>
    <path id="svg_51" class="st9" d="m705.116695,93.099966a0.79782,0.79782 -180 1 0 -1.59564,0a0.79782,0.79782 -180 1 0 1.59564,0"/>
   </g>
   <g id="shape18-106">
    <g class="st1" transform="matrix(1,0,0,1,0.345598,1.97279) " id="shadow18-107"/>
    <text id="svg_52" class="st16" y="140.129966" x="694.188994">私钥</text>
   </g>
  </g>
  <g id="shape20-109">
   <title transform="translate(180,-998.64599609375) ">自关联消息</title>
   <desc transform="translate(180,-998.64599609375) ">生成随机数 RNc</desc>
   <path id="svg_53" class="st18" d="m187.09,155.904004l18,0l0,34.02l-9.52,0"/>
   <rect id="svg_54" class="st20" height="10.6501" width="54.699" y="164.754004" x="199.4223"/>
   <text id="svg_55" class="st21" y="172.744004" x="199.42">生成随机数
    <tspan id="svg_56" class="st22"/>
    <tspan id="svg_57" class="st22">RNc</tspan></text>
  </g>
  <g id="shape21-119">
   <title transform="translate(187.08700561523438,-937.7009887695312) ">消息</title>
   <desc transform="translate(187.08700561523438,-937.7009887695312) ">client hello</desc>
   <path id="svg_58" class="st18" d="m187.087006,209.759011l382.7,0"/>
   <rect id="svg_59" class="st23" height="9.59985" width="35.7998" y="204.959011" x="364.778006"/>
   <text id="svg_60" class="st24" y="212.159011" x="364.777006">client hello</text>
  </g>
  <g id="shape23-126">
   <title transform="translate(317.77899169921875,-963.2130126953125) ">工作表.23</title>
   <desc transform="translate(317.77899169921875,-963.2130126953125) ">支持的协议版本比如TLS1.0版一个客户端生成的随机数RNc稍后用于生成会话密钥 MS支持的加密算法如RSA公钥加密和支持...</desc>
   <g class="st1" transform="matrix(1,0,0,1,0.345598,1.97279) " id="shadow23-127">
    <rect id="svg_61" class="st2" height="65.1969" width="141.434" y="126.136987" x="317.778992"/>
   </g>
   <rect id="svg_62" class="st25" height="65.1969" width="141.434" y="126.136987" x="317.778992"/>
   <text id="svg_63" class="st26" y="137.776987" x="322.648992">支持的协议版本，比如
    <tspan id="svg_64" class="st27">TLS</tspan>
    <tspan id="svg_65" class="st27">1</tspan>
    <tspan id="svg_66" class="st27">.</tspan>
    <tspan id="svg_67" class="st27">0</tspan>版，
    <tspan id="svg_68" class="st28" dy="1.331em" x="322.618992">一个客户端生成的随机数</tspan>
    <tspan id="svg_69" class="st29">RNc</tspan>（稍
    <tspan id="svg_70" class="st28" dy="1.331em" x="323.058992">后用于生成</tspan>
    <tspan id="svg_71" class="st30">会话密钥</tspan>
    <tspan id="svg_72" class="st31"/>
    <tspan id="svg_73" class="st31">MS</tspan>，支持的
    <tspan id="svg_74" class="st28" dy="1.331em" x="322.878992">加密算法</tspan>（如
    <tspan id="svg_75" class="st27">RSA</tspan>公钥加密）和支
    <tspan id="svg_76" class="st28" dy="1.331em" x="361.498992">持的压缩算法</tspan></text>
  </g>
  <g id="shape33-145">
   <title transform="translate(571.1810302734375,-922.1099853515625) ">自关联消息.33</title>
   <desc transform="translate(571.1810302734375,-922.1099853515625) ">生成随机数 RNs</desc>
   <path id="svg_77" class="st18" d="m578.27103,232.440015l18,0l0,34.02l-9.52,0"/>
   <rect id="svg_78" class="st23" height="10.6501" width="54.6133" y="244.120015" x="525.44933"/>
   <text id="svg_79" class="st21" y="252.110015" x="525.45103">生成随机数
    <tspan id="svg_80" class="st27"/>
    <tspan id="svg_81" class="st27">R</tspan>
    <tspan id="svg_82" class="st32">Ns</tspan></text>
  </g>
  <g id="shape34-155">
   <title transform="translate(578.2680053710938,-840.1890258789062) ">消息.34</title>
   <desc transform="translate(578.2680053710938,-840.1890258789062) ">server hello</desc>
   <path id="svg_83" class="st18" d="m578.268005,307.270974l-382.7,0"/>
   <rect id="svg_84" class="st23" height="9.59985" width="38.1638" y="302.470974" x="363.596005"/>
   <text id="svg_85" class="st24" y="309.670974" x="363.598005">server hello</text>
  </g>
  <g id="shape35-162">
   <title transform="translate(282.9049987792969,-856.9130249023438) ">工作表.35</title>
   <desc transform="translate(282.9049987792969,-856.9130249023438) ">确认使用的加密通信协议版本比如TLS 1.0版本如果浏览器与服务器支持的版本不一致服务器关闭加密通信一个服务器生成的随机数...</desc>
   <g class="st1" transform="matrix(1,0,0,1,0.345598,1.97279) " id="shadow35-163">
    <rect id="svg_86" class="st33" height="65.1969" width="211.181" y="232.436975" x="282.904999"/>
   </g>
   <rect id="svg_87" class="st25" height="65.1969" width="211.181" y="232.436975" x="282.904999"/>
   <text id="svg_88" class="st34" y="244.666975" x="294.624999">确认使用的加密通信协议版本，比如
    <tspan id="svg_89" class="st27">TLS</tspan>
    <tspan id="svg_90" class="st27">1</tspan>
    <tspan id="svg_91" class="st27">.</tspan>
    <tspan id="svg_92" class="st27">0</tspan>版本
    <tspan id="svg_93" class="st28" dy="1.233em" x="289.494999">（</tspan>如果浏览器与服务器支持的版本不一致，服务器
    <tspan id="svg_94" class="st28" dy="1.298em" x="295.704999">关闭加密通信</tspan>），一个服务器生成的随机数
    <tspan id="svg_95" class="st29">RNs</tspan>
    <tspan id="svg_96" class="st28" dy="1.331em" x="287.064999">（</tspan>稍后用于生成
    <tspan id="svg_97" class="st30">会话密钥</tspan>
    <tspan id="svg_98" class="st31"/>
    <tspan id="svg_99" class="st31">MS</tspan>），确认使用的加密方
    <tspan id="svg_100" class="st28" dy="1.331em" x="318.384999">法</tspan>（如
    <tspan id="svg_101" class="st27">RSA</tspan>公钥加密），服务器证书</text>
  </g>
  <g id="shape36-181">
   <title transform="translate(578.2680053710938,-810.1420288085938) ">消息.36</title>
   <desc transform="translate(578.2680053710938,-810.1420288085938) ">发送服务端公钥和证书</desc>
   <path id="svg_102" class="st18" d="m578.268005,337.317971l-382.7,0"/>
   <rect id="svg_103" class="st23" height="10.6501" width="79.9997" y="331.997971" x="342.678005"/>
   <text id="svg_104" class="st21" y="339.987971" x="342.678005">发送服务端公钥和证书</text>
  </g>
  <g id="group37-188">
   <title transform="translate(307.3349914550781,-808.6199951171875) ">密钥.37</title>
   <desc transform="translate(307.3349914550781,-808.6199951171875) ">Server公钥</desc>
   <g id="shape38-189">
    <title transform="translate(7.371109962463379,0) translate(307.3349914550781,-808.6199951171875) ">工作表.38</title>
    <g class="st1" transform="matrix(1,0,0,1,0.345598,1.97279) " id="shadow38-190">
     <path id="svg_105" class="st6" d="m325.476101,325.800005c0,-2.97 -2.41,-5.38 -5.39,-5.38c-2.97,0 -5.38,2.41 -5.38,5.38c0,2.35 1.5,4.34 3.59,5.08l0,13.66l1.82,1.39l1.77,-1.39l0,-1.43l0.48,0l0,-2.32l-0.52,-0.41l0,-0.94l0.52,-0.12l0,-1.41l-0.58,-0.64l0.58,-0.4l0,-1.2l-0.52,-0.17l-0.03,-1.44l0.55,-0.15l0,-1.53l-0.48,-0.28l0,-1.23c2.09,-0.73 3.59,-2.72 3.59,-5.07zm-4.71,-3.66a0.57443,0.57443 -180 1 0 -1.14886,0a0.57443,0.57443 -180 1 0 1.14886,0z"/>
     <path id="svg_106" class="st7" d="m325.476101,325.800005c0,-2.97 -2.41,-5.38 -5.39,-5.38c-2.97,0 -5.38,2.41 -5.38,5.38c0,2.35 1.5,4.34 3.59,5.08l0,13.66l1.82,1.39l1.77,-1.39l0,-1.43l0.48,0l0,-2.32l-0.52,-0.41l0,-0.94l0.52,-0.12l0,-1.41l-0.58,-0.64l0.58,-0.4l0,-1.2l-0.52,-0.17l-0.03,-1.44l0.55,-0.15l0,-1.53l-0.48,-0.28l0,-1.23c2.09,-0.73 3.59,-2.72 3.59,-5.07"/>
     <path id="svg_107" class="st7" d="m319.406101,331.050005l0,12.99"/>
     <path id="svg_108" class="st7" d="m320.766101,322.140005a0.57443,0.57443 -180 1 0 -1.14886,0a0.57443,0.57443 -180 1 0 1.14886,0"/>
    </g>
    <path id="svg_109" class="st15" d="m325.476101,325.800005c0,-2.97 -2.41,-5.38 -5.39,-5.38c-2.97,0 -5.38,2.41 -5.38,5.38c0,2.35 1.5,4.34 3.59,5.08l0,13.66l1.82,1.39l1.77,-1.39l0,-1.43l0.48,0l0,-2.32l-0.52,-0.41l0,-0.94l0.52,-0.12l0,-1.41l-0.58,-0.64l0.58,-0.4l0,-1.2l-0.52,-0.17l-0.03,-1.44l0.55,-0.15l0,-1.53l-0.48,-0.28l0,-1.23c2.09,-0.73 3.59,-2.72 3.59,-5.07zm-4.71,-3.66a0.57443,0.57443 -180 1 0 -1.14886,0a0.57443,0.57443 -180 1 0 1.14886,0z"/>
    <path id="svg_110" class="st9" d="m325.476101,325.800005c0,-2.97 -2.41,-5.38 -5.39,-5.38c-2.97,0 -5.38,2.41 -5.38,5.38c0,2.35 1.5,4.34 3.59,5.08l0,13.66l1.82,1.39l1.77,-1.39l0,-1.43l0.48,0l0,-2.32l-0.52,-0.41l0,-0.94l0.52,-0.12l0,-1.41l-0.58,-0.64l0.58,-0.4l0,-1.2l-0.52,-0.17l-0.03,-1.44l0.55,-0.15l0,-1.53l-0.48,-0.28l0,-1.23c2.09,-0.73 3.59,-2.72 3.59,-5.07"/>
    <path id="svg_111" class="st9" d="m319.406101,331.050005l0,12.99"/>
    <path id="svg_112" class="st9" d="m320.766101,322.140005a0.57443,0.57443 -180 1 0 -1.14886,0a0.57443,0.57443 -180 1 0 1.14886,0"/>
   </g>
   <g id="shape37-201">
    <g class="st1" transform="matrix(1,0,0,1,0.345598,1.97279) " id="shadow37-202"/>
    <text id="svg_113" class="st35" y="355.920005" x="306.284991">Server
     <tspan id="svg_114" class="st11">公钥</tspan></text>
   </g>
  </g>
  <g id="shape39-205">
   <title transform="translate(578.2680053710938,-773.291015625) ">消息.39</title>
   <desc transform="translate(578.2680053710938,-773.291015625) ">server helllo Done, 请求客户端公钥证书</desc>
   <path id="svg_115" class="st18" d="m578.268005,374.168984l-382.7,0"/>
   <rect id="svg_116" class="st23" height="20.25" width="71.9997" y="364.048984" x="346.678005"/>
   <text id="svg_117" class="st24" y="371.248984" x="352.118005">server helllo Done,
    <tspan id="svg_118" class="st11" dy="1.298em" x="346.678005">请求客户端公钥证书</tspan></text>
  </g>
  <g id="shape40-213">
   <title transform="translate(180,-760.5349731445312) ">自关联消息.40</title>
   <desc transform="translate(180,-760.5349731445312) ">检查服务端证书的真实性</desc>
   <path id="svg_119" class="st18" d="m187.09,394.015027l18,0l0,34.02l-9.52,0"/>
   <rect id="svg_120" class="st23" height="10.6501" width="87.9997" y="405.695027" x="143.0869"/>
   <text id="svg_121" class="st21" y="413.685027" x="143.09">检查服务端证书的真实性</text>
  </g>
  <g id="shape41-220">
   <title transform="translate(187.08700561523438,-702.4249877929688) ">消息.41</title>
   <desc transform="translate(187.08700561523438,-702.4249877929688) ">发送客户端ca证书和公钥</desc>
   <path id="svg_122" class="st18" d="m187.087006,445.035012l382.7,0"/>
   <rect id="svg_123" class="st23" height="10.6501" width="87.2144" y="439.715012" x="339.070006"/>
   <text id="svg_124" class="st21" y="447.705012" x="339.067006">发送客户端
    <tspan id="svg_125" class="st27">ca</tspan>证书和公钥</text>
  </g>
  <g id="group42-228">
   <title transform="translate(428.031005859375,-699.5159912109375) ">密钥.42</title>
   <desc transform="translate(428.031005859375,-699.5159912109375) ">Client 公钥</desc>
   <g id="shape43-229">
    <title transform="translate(7.371109962463379,0) translate(428.031005859375,-699.5159912109375) ">工作表.43</title>
    <path id="svg_126" class="st12" d="m446.172116,434.904009c0,-2.97 -2.41,-5.38 -5.39,-5.38c-2.97,0 -5.38,2.41 -5.38,5.38c0,2.35 1.5,4.34 3.59,5.08l0,13.66l1.82,1.39l1.77,-1.39l0,-1.43l0.48,0l0,-2.32l-0.52,-0.41l0,-0.94l0.52,-0.12l0,-1.41l-0.58,-0.64l0.58,-0.4l0,-1.2l-0.52,-0.17l-0.03,-1.44l0.55,-0.15l0,-1.53l-0.48,-0.28l0,-1.23c2.09,-0.73 3.59,-2.72 3.59,-5.07zm-4.71,-3.66a0.57443,0.57443 -180 1 0 -1.14886,0a0.57443,0.57443 -180 1 0 1.14886,0z"/>
    <path id="svg_127" class="st13" d="m446.172116,434.904009c0,-2.97 -2.41,-5.38 -5.39,-5.38c-2.97,0 -5.38,2.41 -5.38,5.38c0,2.35 1.5,4.34 3.59,5.08l0,13.66l1.82,1.39l1.77,-1.39l0,-1.43l0.48,0l0,-2.32l-0.52,-0.41l0,-0.94l0.52,-0.12l0,-1.41l-0.58,-0.64l0.58,-0.4l0,-1.2l-0.52,-0.17l-0.03,-1.44l0.55,-0.15l0,-1.53l-0.48,-0.28l0,-1.23c2.09,-0.73 3.59,-2.72 3.59,-5.07"/>
    <path id="svg_128" class="st13" d="m440.102116,440.154009l0,12.99"/>
    <path id="svg_129" class="st13" d="m441.462116,431.244009a0.57443,0.57443 -180 1 0 -1.14886,0a0.57443,0.57443 -180 1 0 1.14886,0"/>
   </g>
   <g id="shape42-234">
    <text id="svg_130" class="st36" y="464.434009" x="433.741006">Client
     <tspan id="svg_131" class="st11" dy="1.298em" x="434.791006">公钥</tspan></text>
   </g>
  </g>
  <g id="shape44-237">
   <title transform="translate(571.1810302734375,-689.6690063476562) ">自关联消息.44</title>
   <desc transform="translate(571.1810302734375,-689.6690063476562) ">检查客户端证书</desc>
   <path id="svg_132" class="st18" d="m578.27103,464.880994l18,0l0,28.35l-9.52,0"/>
   <rect id="svg_133" class="st23" height="10.6501" width="55.9998" y="476.560994" x="524.75603"/>
   <text id="svg_134" class="st21" y="484.550994" x="524.76103">检查客户端证书</text>
  </g>
  <g id="shape45-244">
   <title transform="translate(187.08700561523438,-631.5590209960938) ">消息.45</title>
   <desc transform="translate(187.08700561523438,-631.5590209960938) ">前面所有的消息都用 hash 摘要计算并用 client私钥 加密 目的是让服务端验证一下他知道的client的公钥和算法</desc>
   <path id="svg_135" class="st18" d="m187.087006,515.900979l382.7,0"/>
   <rect id="svg_136" class="st23" height="21.3" width="209.035" y="505.250979" x="278.160306"/>
   <text id="svg_137" class="st21" y="513.240979" x="278.157006">前面所有的消息都用
    <tspan id="svg_138" class="st27"/>
    <tspan id="svg_139" class="st27">hash</tspan>摘要计算，并用
    <tspan id="svg_140" class="st27"/>
    <tspan id="svg_141" class="st29">client</tspan>
    <tspan id="svg_142" class="st37">私钥</tspan>
    <tspan id="svg_143" class="st29"/>加密，
    <tspan id="svg_144" class="st28" dy="1.331em" x="289.447006">目的是让服务端验证一下他知道的</tspan>
    <tspan id="svg_145" class="st29">client</tspan>
    <tspan id="svg_146" class="st37">的公钥</tspan>和算法</text>
  </g>
  <g id="group46-260">
   <title transform="translate(80.78739929199219,-800.219970703125) ">密钥.46</title>
   <desc transform="translate(80.78739929199219,-800.219970703125) ">Client 公钥</desc>
   <g id="shape47-261">
    <title transform="translate(7.371109962463379,0) translate(80.78739929199219,-800.219970703125) ">工作表.47</title>
    <path id="svg_147" class="st12" d="m98.928509,334.200029c0,-2.97 -2.41,-5.38 -5.39,-5.38c-2.97,0 -5.38,2.41 -5.38,5.38c0,2.35 1.5,4.34 3.59,5.08l0,13.66l1.82,1.39l1.77,-1.39l0,-1.43l0.48,0l0,-2.32l-0.52,-0.41l0,-0.94l0.52,-0.12l0,-1.41l-0.58,-0.64l0.58,-0.4l0,-1.2l-0.52,-0.17l-0.03,-1.44l0.55,-0.15l0,-1.53l-0.48,-0.28l0,-1.23c2.09,-0.73 3.59,-2.72 3.59,-5.07zm-4.71,-3.66a0.57443,0.57443 -180 1 0 -1.14886,0a0.57443,0.57443 -180 1 0 1.14886,0z"/>
    <path id="svg_148" class="st13" d="m98.928509,334.200029c0,-2.97 -2.41,-5.38 -5.39,-5.38c-2.97,0 -5.38,2.41 -5.38,5.38c0,2.35 1.5,4.34 3.59,5.08l0,13.66l1.82,1.39l1.77,-1.39l0,-1.43l0.48,0l0,-2.32l-0.52,-0.41l0,-0.94l0.52,-0.12l0,-1.41l-0.58,-0.64l0.58,-0.4l0,-1.2l-0.52,-0.17l-0.03,-1.44l0.55,-0.15l0,-1.53l-0.48,-0.28l0,-1.23c2.09,-0.73 3.59,-2.72 3.59,-5.07"/>
    <path id="svg_149" class="st13" d="m92.858509,339.450029l0,12.99"/>
    <path id="svg_150" class="st13" d="m94.218509,330.540029a0.57443,0.57443 -180 1 0 -1.14886,0a0.57443,0.57443 -180 1 0 1.14886,0"/>
   </g>
   <g id="shape46-266">
    <text id="svg_151" class="st14" y="367.330029" x="81.797399">Client
     <tspan id="svg_152" class="st11" dy="1.298em" x="83.547399">公钥</tspan></text>
   </g>
  </g>
  <g id="group48-269">
   <title transform="translate(55.79779815673828,-800.219970703125) ">密钥.48</title>
   <desc transform="translate(55.79779815673828,-800.219970703125) ">Client 私钥</desc>
   <g id="shape49-270">
    <title transform="translate(7.371109962463379,0) translate(55.79779815673828,-800.219970703125) ">工作表.49</title>
    <g class="st1" transform="matrix(1,0,0,1,0.345598,1.97279) " id="shadow49-271">
     <path id="svg_153" class="st6" d="m73.938908,334.200029c0,-2.97 -2.41,-5.38 -5.39,-5.38c-2.97,0 -5.38,2.41 -5.38,5.38c0,2.35 1.5,4.34 3.59,5.08l0,13.66l1.82,1.39l1.77,-1.39l0,-1.43l0.48,0l0,-2.32l-0.52,-0.41l0,-0.94l0.52,-0.12l0,-1.41l-0.58,-0.64l0.58,-0.4l0,-1.2l-0.52,-0.17l-0.03,-1.44l0.55,-0.15l0,-1.53l-0.48,-0.28l0,-1.23c2.09,-0.73 3.59,-2.72 3.59,-5.07zm-4.71,-3.66a0.57443,0.57443 -180 1 0 -1.14886,0a0.57443,0.57443 -180 1 0 1.14886,0z"/>
     <path id="svg_154" class="st7" d="m73.938908,334.200029c0,-2.97 -2.41,-5.38 -5.39,-5.38c-2.97,0 -5.38,2.41 -5.38,5.38c0,2.35 1.5,4.34 3.59,5.08l0,13.66l1.82,1.39l1.77,-1.39l0,-1.43l0.48,0l0,-2.32l-0.52,-0.41l0,-0.94l0.52,-0.12l0,-1.41l-0.58,-0.64l0.58,-0.4l0,-1.2l-0.52,-0.17l-0.03,-1.44l0.55,-0.15l0,-1.53l-0.48,-0.28l0,-1.23c2.09,-0.73 3.59,-2.72 3.59,-5.07"/>
     <path id="svg_155" class="st7" d="m67.868908,339.450029l0,12.99"/>
     <path id="svg_156" class="st7" d="m69.228908,330.540029a0.57443,0.57443 -180 1 0 -1.14886,0a0.57443,0.57443 -180 1 0 1.14886,0"/>
    </g>
    <path id="svg_157" class="st8" d="m73.938908,334.200029c0,-2.97 -2.41,-5.38 -5.39,-5.38c-2.97,0 -5.38,2.41 -5.38,5.38c0,2.35 1.5,4.34 3.59,5.08l0,13.66l1.82,1.39l1.77,-1.39l0,-1.43l0.48,0l0,-2.32l-0.52,-0.41l0,-0.94l0.52,-0.12l0,-1.41l-0.58,-0.64l0.58,-0.4l0,-1.2l-0.52,-0.17l-0.03,-1.44l0.55,-0.15l0,-1.53l-0.48,-0.28l0,-1.23c2.09,-0.73 3.59,-2.72 3.59,-5.07zm-4.71,-3.66a0.57443,0.57443 -180 1 0 -1.14886,0a0.57443,0.57443 -180 1 0 1.14886,0z"/>
    <path id="svg_158" class="st9" d="m73.938908,334.200029c0,-2.97 -2.41,-5.38 -5.39,-5.38c-2.97,0 -5.38,2.41 -5.38,5.38c0,2.35 1.5,4.34 3.59,5.08l0,13.66l1.82,1.39l1.77,-1.39l0,-1.43l0.48,0l0,-2.32l-0.52,-0.41l0,-0.94l0.52,-0.12l0,-1.41l-0.58,-0.64l0.58,-0.4l0,-1.2l-0.52,-0.17l-0.03,-1.44l0.55,-0.15l0,-1.53l-0.48,-0.28l0,-1.23c2.09,-0.73 3.59,-2.72 3.59,-5.07"/>
    <path id="svg_159" class="st9" d="m67.868908,339.450029l0,12.99"/>
    <path id="svg_160" class="st9" d="m69.228908,330.540029a0.57443,0.57443 -180 1 0 -1.14886,0a0.57443,0.57443 -180 1 0 1.14886,0"/>
   </g>
   <g id="shape48-282">
    <g class="st1" transform="matrix(1,0,0,1,0.345598,1.97279) " id="shadow48-283"/>
    <text id="svg_161" class="st10" y="367.330029" x="56.807798">Client
     <tspan id="svg_162" class="st11" dy="1.298em" x="58.557798">私钥</tspan></text>
   </g>
  </g>
  <g id="group50-286">
   <title transform="translate(110.9990005493164,-800.219970703125) ">密钥.50</title>
   <desc transform="translate(110.9990005493164,-800.219970703125) ">Server 公钥</desc>
   <g id="shape51-287">
    <title transform="translate(7.371109962463379,0) translate(110.9990005493164,-800.219970703125) ">工作表.51</title>
    <g class="st1" transform="matrix(1,0,0,1,0.345598,1.97279) " id="shadow51-288">
     <path id="svg_163" class="st6" d="m129.140111,334.200029c0,-2.97 -2.41,-5.38 -5.39,-5.38c-2.97,0 -5.38,2.41 -5.38,5.38c0,2.35 1.5,4.34 3.59,5.08l0,13.66l1.82,1.39l1.77,-1.39l0,-1.43l0.48,0l0,-2.32l-0.52,-0.41l0,-0.94l0.52,-0.12l0,-1.41l-0.58,-0.64l0.58,-0.4l0,-1.2l-0.52,-0.17l-0.03,-1.44l0.55,-0.15l0,-1.53l-0.48,-0.28l0,-1.23c2.09,-0.73 3.59,-2.72 3.59,-5.07zm-4.71,-3.66a0.57443,0.57443 -180 1 0 -1.14886,0a0.57443,0.57443 -180 1 0 1.14886,0z"/>
     <path id="svg_164" class="st7" d="m129.140111,334.200029c0,-2.97 -2.41,-5.38 -5.39,-5.38c-2.97,0 -5.38,2.41 -5.38,5.38c0,2.35 1.5,4.34 3.59,5.08l0,13.66l1.82,1.39l1.77,-1.39l0,-1.43l0.48,0l0,-2.32l-0.52,-0.41l0,-0.94l0.52,-0.12l0,-1.41l-0.58,-0.64l0.58,-0.4l0,-1.2l-0.52,-0.17l-0.03,-1.44l0.55,-0.15l0,-1.53l-0.48,-0.28l0,-1.23c2.09,-0.73 3.59,-2.72 3.59,-5.07"/>
     <path id="svg_165" class="st7" d="m123.070111,339.450029l0,12.99"/>
     <path id="svg_166" class="st7" d="m124.430111,330.540029a0.57443,0.57443 -180 1 0 -1.14886,0a0.57443,0.57443 -180 1 0 1.14886,0"/>
    </g>
    <path id="svg_167" class="st15" d="m129.140111,334.200029c0,-2.97 -2.41,-5.38 -5.39,-5.38c-2.97,0 -5.38,2.41 -5.38,5.38c0,2.35 1.5,4.34 3.59,5.08l0,13.66l1.82,1.39l1.77,-1.39l0,-1.43l0.48,0l0,-2.32l-0.52,-0.41l0,-0.94l0.52,-0.12l0,-1.41l-0.58,-0.64l0.58,-0.4l0,-1.2l-0.52,-0.17l-0.03,-1.44l0.55,-0.15l0,-1.53l-0.48,-0.28l0,-1.23c2.09,-0.73 3.59,-2.72 3.59,-5.07zm-4.71,-3.66a0.57443,0.57443 -180 1 0 -1.14886,0a0.57443,0.57443 -180 1 0 1.14886,0z"/>
    <path id="svg_168" class="st9" d="m129.140111,334.200029c0,-2.97 -2.41,-5.38 -5.39,-5.38c-2.97,0 -5.38,2.41 -5.38,5.38c0,2.35 1.5,4.34 3.59,5.08l0,13.66l1.82,1.39l1.77,-1.39l0,-1.43l0.48,0l0,-2.32l-0.52,-0.41l0,-0.94l0.52,-0.12l0,-1.41l-0.58,-0.64l0.58,-0.4l0,-1.2l-0.52,-0.17l-0.03,-1.44l0.55,-0.15l0,-1.53l-0.48,-0.28l0,-1.23c2.09,-0.73 3.59,-2.72 3.59,-5.07"/>
    <path id="svg_169" class="st9" d="m123.070111,339.450029l0,12.99"/>
    <path id="svg_170" class="st9" d="m124.430111,330.540029a0.57443,0.57443 -180 1 0 -1.14886,0a0.57443,0.57443 -180 1 0 1.14886,0"/>
   </g>
   <g id="shape50-299">
    <g class="st1" transform="matrix(1,0,0,1,0.345598,1.97279) " id="shadow50-300"/>
    <text id="svg_171" class="st10" y="367.330029" x="110.739001">Server
     <tspan id="svg_172" class="st11" dy="1.298em" x="113.759001">公钥</tspan></text>
   </g>
  </g>
  <g id="group58-303">
   <title transform="translate(655.7360229492188,-693.9210205078125) ">密钥.58</title>
   <desc transform="translate(655.7360229492188,-693.9210205078125) ">Server 公钥</desc>
   <g id="shape59-304">
    <title transform="translate(7.371109962463379,0) translate(655.7360229492188,-693.9210205078125) ">工作表.59</title>
    <g class="st1" transform="matrix(1,0,0,1,0.345598,1.97279) " id="shadow59-305">
     <path id="svg_173" class="st6" d="m673.877133,440.498979c0,-2.97 -2.41,-5.38 -5.39,-5.38c-2.97,0 -5.38,2.41 -5.38,5.38c0,2.35 1.5,4.34 3.59,5.08l0,13.66l1.82,1.39l1.77,-1.39l0,-1.43l0.48,0l0,-2.32l-0.52,-0.41l0,-0.94l0.52,-0.12l0,-1.41l-0.58,-0.64l0.58,-0.4l0,-1.2l-0.52,-0.17l-0.03,-1.44l0.55,-0.15l0,-1.53l-0.48,-0.28l0,-1.23c2.09,-0.73 3.59,-2.72 3.59,-5.07zm-4.71,-3.66a0.57443,0.57443 -180 1 0 -1.14886,0a0.57443,0.57443 -180 1 0 1.14886,0z"/>
     <path id="svg_174" class="st7" d="m673.877133,440.498979c0,-2.97 -2.41,-5.38 -5.39,-5.38c-2.97,0 -5.38,2.41 -5.38,5.38c0,2.35 1.5,4.34 3.59,5.08l0,13.66l1.82,1.39l1.77,-1.39l0,-1.43l0.48,0l0,-2.32l-0.52,-0.41l0,-0.94l0.52,-0.12l0,-1.41l-0.58,-0.64l0.58,-0.4l0,-1.2l-0.52,-0.17l-0.03,-1.44l0.55,-0.15l0,-1.53l-0.48,-0.28l0,-1.23c2.09,-0.73 3.59,-2.72 3.59,-5.07"/>
     <path id="svg_175" class="st7" d="m667.807133,445.748979l0,12.99"/>
     <path id="svg_176" class="st7" d="m669.167133,436.838979a0.57443,0.57443 -180 1 0 -1.14886,0a0.57443,0.57443 -180 1 0 1.14886,0"/>
    </g>
    <path id="svg_177" class="st15" d="m673.877133,440.498979c0,-2.97 -2.41,-5.38 -5.39,-5.38c-2.97,0 -5.38,2.41 -5.38,5.38c0,2.35 1.5,4.34 3.59,5.08l0,13.66l1.82,1.39l1.77,-1.39l0,-1.43l0.48,0l0,-2.32l-0.52,-0.41l0,-0.94l0.52,-0.12l0,-1.41l-0.58,-0.64l0.58,-0.4l0,-1.2l-0.52,-0.17l-0.03,-1.44l0.55,-0.15l0,-1.53l-0.48,-0.28l0,-1.23c2.09,-0.73 3.59,-2.72 3.59,-5.07zm-4.71,-3.66a0.57443,0.57443 -180 1 0 -1.14886,0a0.57443,0.57443 -180 1 0 1.14886,0z"/>
    <path id="svg_178" class="st9" d="m673.877133,440.498979c0,-2.97 -2.41,-5.38 -5.39,-5.38c-2.97,0 -5.38,2.41 -5.38,5.38c0,2.35 1.5,4.34 3.59,5.08l0,13.66l1.82,1.39l1.77,-1.39l0,-1.43l0.48,0l0,-2.32l-0.52,-0.41l0,-0.94l0.52,-0.12l0,-1.41l-0.58,-0.64l0.58,-0.4l0,-1.2l-0.52,-0.17l-0.03,-1.44l0.55,-0.15l0,-1.53l-0.48,-0.28l0,-1.23c2.09,-0.73 3.59,-2.72 3.59,-5.07"/>
    <path id="svg_179" class="st9" d="m667.807133,445.748979l0,12.99"/>
    <path id="svg_180" class="st9" d="m669.167133,436.838979a0.57443,0.57443 -180 1 0 -1.14886,0a0.57443,0.57443 -180 1 0 1.14886,0"/>
   </g>
   <g id="shape58-316">
    <g class="st1" transform="matrix(1,0,0,1,0.345598,1.97279) " id="shadow58-317"/>
    <text id="svg_181" class="st10" y="473.628979" x="655.476023">Server
     <tspan id="svg_182" class="st11" dy="1.298em" x="658.496023">公钥</tspan></text>
   </g>
  </g>
  <g id="group60-320">
   <title transform="translate(686.1329956054688,-693.9210205078125) ">密钥.60</title>
   <desc transform="translate(686.1329956054688,-693.9210205078125) ">Server 私钥</desc>
   <g id="shape61-321">
    <title transform="translate(7.371109962463379,0) translate(686.1329956054688,-693.9210205078125) ">工作表.61</title>
    <g class="st1" transform="matrix(1,0,0,1,0.345598,1.97279) " id="shadow61-322">
     <path id="svg_183" class="st6" d="m704.274106,440.498979c0,-2.97 -2.41,-5.38 -5.39,-5.38c-2.97,0 -5.38,2.41 -5.38,5.38c0,2.35 1.5,4.34 3.59,5.08l0,13.66l1.82,1.39l1.77,-1.39l0,-1.43l0.48,0l0,-2.32l-0.52,-0.41l0,-0.94l0.52,-0.12l0,-1.41l-0.58,-0.64l0.58,-0.4l0,-1.2l-0.52,-0.17l-0.03,-1.44l0.55,-0.15l0,-1.53l-0.48,-0.28l0,-1.23c2.09,-0.73 3.59,-2.72 3.59,-5.07zm-4.71,-3.66a0.57443,0.57443 -180 1 0 -1.14886,0a0.57443,0.57443 -180 1 0 1.14886,0z"/>
     <path id="svg_184" class="st7" d="m704.274106,440.498979c0,-2.97 -2.41,-5.38 -5.39,-5.38c-2.97,0 -5.38,2.41 -5.38,5.38c0,2.35 1.5,4.34 3.59,5.08l0,13.66l1.82,1.39l1.77,-1.39l0,-1.43l0.48,0l0,-2.32l-0.52,-0.41l0,-0.94l0.52,-0.12l0,-1.41l-0.58,-0.64l0.58,-0.4l0,-1.2l-0.52,-0.17l-0.03,-1.44l0.55,-0.15l0,-1.53l-0.48,-0.28l0,-1.23c2.09,-0.73 3.59,-2.72 3.59,-5.07"/>
     <path id="svg_185" class="st7" d="m698.204106,445.748979l0,12.99"/>
     <path id="svg_186" class="st7" d="m699.564106,436.838979a0.57443,0.57443 -180 1 0 -1.14886,0a0.57443,0.57443 -180 1 0 1.14886,0"/>
    </g>
    <path id="svg_187" class="st17" d="m704.274106,440.498979c0,-2.97 -2.41,-5.38 -5.39,-5.38c-2.97,0 -5.38,2.41 -5.38,5.38c0,2.35 1.5,4.34 3.59,5.08l0,13.66l1.82,1.39l1.77,-1.39l0,-1.43l0.48,0l0,-2.32l-0.52,-0.41l0,-0.94l0.52,-0.12l0,-1.41l-0.58,-0.64l0.58,-0.4l0,-1.2l-0.52,-0.17l-0.03,-1.44l0.55,-0.15l0,-1.53l-0.48,-0.28l0,-1.23c2.09,-0.73 3.59,-2.72 3.59,-5.07zm-4.71,-3.66a0.57443,0.57443 -180 1 0 -1.14886,0a0.57443,0.57443 -180 1 0 1.14886,0z"/>
    <path id="svg_188" class="st9" d="m704.274106,440.498979c0,-2.97 -2.41,-5.38 -5.39,-5.38c-2.97,0 -5.38,2.41 -5.38,5.38c0,2.35 1.5,4.34 3.59,5.08l0,13.66l1.82,1.39l1.77,-1.39l0,-1.43l0.48,0l0,-2.32l-0.52,-0.41l0,-0.94l0.52,-0.12l0,-1.41l-0.58,-0.64l0.58,-0.4l0,-1.2l-0.52,-0.17l-0.03,-1.44l0.55,-0.15l0,-1.53l-0.48,-0.28l0,-1.23c2.09,-0.73 3.59,-2.72 3.59,-5.07"/>
    <path id="svg_189" class="st9" d="m698.204106,445.748979l0,12.99"/>
    <path id="svg_190" class="st9" d="m699.564106,436.838979a0.57443,0.57443 -180 1 0 -1.14886,0a0.57443,0.57443 -180 1 0 1.14886,0"/>
   </g>
   <g id="shape60-333">
    <g class="st1" transform="matrix(1,0,0,1,0.345598,1.97279) " id="shadow60-334"/>
    <text id="svg_191" class="st10" y="473.628979" x="685.872996">Server
     <tspan id="svg_192" class="st11" dy="1.298em" x="688.892996">私钥</tspan></text>
   </g>
  </g>
  <g id="group62-337">
   <title transform="translate(626.8300170898438,-693.9210205078125) ">密钥.62</title>
   <desc transform="translate(626.8300170898438,-693.9210205078125) ">Client 公钥</desc>
   <g id="shape63-338">
    <title transform="translate(7.371109962463379,0) translate(626.8300170898438,-693.9210205078125) ">工作表.63</title>
    <path id="svg_193" class="st12" d="m644.971127,440.498979c0,-2.97 -2.41,-5.38 -5.39,-5.38c-2.97,0 -5.38,2.41 -5.38,5.38c0,2.35 1.5,4.34 3.59,5.08l0,13.66l1.82,1.39l1.77,-1.39l0,-1.43l0.48,0l0,-2.32l-0.52,-0.41l0,-0.94l0.52,-0.12l0,-1.41l-0.58,-0.64l0.58,-0.4l0,-1.2l-0.52,-0.17l-0.03,-1.44l0.55,-0.15l0,-1.53l-0.48,-0.28l0,-1.23c2.09,-0.73 3.59,-2.72 3.59,-5.07zm-4.71,-3.66a0.57443,0.57443 -180 1 0 -1.14886,0a0.57443,0.57443 -180 1 0 1.14886,0z"/>
    <path id="svg_194" class="st13" d="m644.971127,440.498979c0,-2.97 -2.41,-5.38 -5.39,-5.38c-2.97,0 -5.38,2.41 -5.38,5.38c0,2.35 1.5,4.34 3.59,5.08l0,13.66l1.82,1.39l1.77,-1.39l0,-1.43l0.48,0l0,-2.32l-0.52,-0.41l0,-0.94l0.52,-0.12l0,-1.41l-0.58,-0.64l0.58,-0.4l0,-1.2l-0.52,-0.17l-0.03,-1.44l0.55,-0.15l0,-1.53l-0.48,-0.28l0,-1.23c2.09,-0.73 3.59,-2.72 3.59,-5.07"/>
    <path id="svg_195" class="st13" d="m638.901127,445.748979l0,12.99"/>
    <path id="svg_196" class="st13" d="m640.261127,436.838979a0.57443,0.57443 -180 1 0 -1.14886,0a0.57443,0.57443 -180 1 0 1.14886,0"/>
   </g>
   <g id="shape62-343">
    <text id="svg_197" class="st14" y="473.628979" x="627.840017">Client
     <tspan id="svg_198" class="st11" dy="1.298em" x="629.590017">公钥</tspan></text>
   </g>
  </g>
  <g id="shape64-346">
   <title transform="translate(571.1810302734375,-618.802978515625) ">自关联消息.64</title>
   <desc transform="translate(571.1810302734375,-618.802978515625) ">解密,检查hash和摘要</desc>
   <path id="svg_199" class="st18" d="m578.27103,535.747021l18,0l0,28.35l-9.52,0"/>
   <rect id="svg_200" class="st23" height="10.6501" width="73.3631" y="547.427021" x="496.23183"/>
   <text id="svg_201" class="st21" y="555.417021" x="496.23103">解密
    <tspan id="svg_202" class="st27">,</tspan>检查
    <tspan id="svg_203" class="st27">hash</tspan>和摘要</text>
  </g>
  <g id="shape65-355">
   <title transform="translate(180,-618.802978515625) ">自关联消息.65</title>
   <desc transform="translate(180,-618.802978515625) ">生成一个随机数PMS(pre-master-secret)</desc>
   <path id="svg_204" class="st18" d="m187.09,535.747021l18,0l0,34.02l-9.52,0"/>
   <rect id="svg_205" class="st23" height="10.6501" width="134.112" y="547.427021" x="188.0622"/>
   <text id="svg_206" class="st21" y="555.417021" x="188.06">生成一个随机数
    <tspan id="svg_207" class="st27">PMS</tspan>
    <tspan id="svg_208" class="st27">(</tspan>
    <tspan id="svg_209" class="st27">pre</tspan>
    <tspan id="svg_210" class="st27">-</tspan>
    <tspan id="svg_211" class="st27">master</tspan>
    <tspan id="svg_212" class="st27">-</tspan>
    <tspan id="svg_213" class="st27">secret</tspan>
    <tspan id="svg_214" class="st27">)</tspan></text>
  </g>
  <g id="shape66-370">
   <title transform="translate(187.08700561523438,-540.8499755859375) ">消息.66</title>
   <desc transform="translate(187.08700561523438,-540.8499755859375) ">用 server的公钥 加密发送(pms)</desc>
   <path id="svg_215" class="st18" d="m187.087006,606.610024l382.7,0"/>
   <rect id="svg_216" class="st23" height="10.6501" width="107.004" y="601.290024" x="329.176006"/>
   <text id="svg_217" class="st21" y="609.280024" x="329.177006">用
    <tspan id="svg_218" class="st27"/>
    <tspan id="svg_219" class="st29">server</tspan>
    <tspan id="svg_220" class="st37">的公钥</tspan>
    <tspan id="svg_221" class="st29"/>加密发送
    <tspan id="svg_222" class="st27">(</tspan>
    <tspan id="svg_223" class="st27">pms</tspan>
    <tspan id="svg_224" class="st27">)</tspan></text>
  </g>
  <g id="shape67-384">
   <title transform="translate(180,-530.9290161132812) ">自关联消息.67</title>
   <desc transform="translate(180,-530.9290161132812) ">计算MasterSecrept 从pms,RNc,RNs</desc>
   <path id="svg_225" class="st18" d="m187.09,623.620984l18,0l0,36.85l-9.52,0"/>
   <rect id="svg_226" class="st23" height="10.6501" width="116.991" y="636.720984" x="128.591"/>
   <text id="svg_227" class="st21" y="644.710984" x="128.59">计算
    <tspan id="svg_228" class="st27">MasterSecrept</tspan>从
    <tspan id="svg_229" class="st27">pms</tspan>
    <tspan id="svg_230" class="st27">,</tspan>
    <tspan id="svg_231" class="st27">RNc</tspan>
    <tspan id="svg_232" class="st27">,</tspan>
    <tspan id="svg_233" class="st27">RNs</tspan></text>
  </g>
  <g id="shape69-397">
   <title transform="translate(571.1810302734375,-530.9290161132812) ">自关联消息.69</title>
   <desc transform="translate(571.1810302734375,-530.9290161132812) ">计算MasterSecrept 从pms,RNc,RNs</desc>
   <path id="svg_234" class="st18" d="m578.27103,623.620984l18,0l0,36.85l-9.52,0"/>
   <rect id="svg_235" class="st23" height="10.6501" width="116.991" y="636.720984" x="519.77203"/>
   <text id="svg_236" class="st21" y="644.710984" x="519.77103">计算
    <tspan id="svg_237" class="st27">MasterSecrept</tspan>从
    <tspan id="svg_238" class="st27">pms</tspan>
    <tspan id="svg_239" class="st27">,</tspan>
    <tspan id="svg_240" class="st27">RNc</tspan>
    <tspan id="svg_241" class="st27">,</tspan>
    <tspan id="svg_242" class="st27">RNs</tspan></text>
  </g>
  <g id="shape70-410">
   <title transform="translate(187.08700561523438,-458.34698486328125) ">消息.70</title>
   <desc transform="translate(187.08700561523438,-458.34698486328125) ">ChangeCipherSpec ,告知服务端已经切换到协商过的加密套件状态 准备使用加密套件和MS加密数据了</desc>
   <path id="svg_243" class="st18" d="m187.087006,689.113015l382.7,0"/>
   <rect id="svg_244" class="st20" height="21.3" width="232.573" y="678.463015" x="266.391106"/>
   <text id="svg_245" class="st24" y="686.453015" x="266.387006">ChangeCipherSpec
    <tspan id="svg_246" class="st28"/>
    <tspan id="svg_247" class="st28">,</tspan>
    <tspan id="svg_248" class="st11">告知服务端已经切换到协商过的加密套件状态</tspan>
    <tspan id="svg_249" class="st11">，</tspan>
    <tspan id="svg_250" class="st11" dy="1.331em" x="321.417006">准备使用加密套件和</tspan>
    <tspan id="svg_251" class="st28">MS</tspan>
    <tspan id="svg_252" class="st11">加密数据了</tspan></text>
  </g>
  <g id="shape71-424">
   <title transform="translate(187.08700561523438,-433.1340026855469) ">消息.71</title>
   <desc transform="translate(187.08700561523438,-433.1340026855469) ">结束SSL握手</desc>
   <path id="svg_253" class="st18" d="m187.087006,714.325997l382.7,0"/>
   <rect id="svg_254" class="st23" height="10.6501" width="42.7146" y="709.005997" x="361.320006"/>
   <text id="svg_255" class="st21" y="716.995997" x="361.317006">结束
    <tspan id="svg_256" class="st27">SSL</tspan>握手</text>
  </g>
  <g id="shape72-432">
   <title transform="translate(578.2680053710938,-406.5780029296875) ">消息.72</title>
   <desc transform="translate(578.2680053710938,-406.5780029296875) ">ChangeCipherSpec ,告知客户端已经切换到协商过的加密套件状态 准备使用加密套件和MS加密数据了</desc>
   <path id="svg_257" class="st18" d="m578.268005,740.881997l-382.7,0"/>
   <rect id="svg_258" class="st23" height="21.3" width="232.573" y="730.231997" x="266.391005"/>
   <text id="svg_259" class="st24" y="738.221997" x="266.388005">ChangeCipherSpec
    <tspan id="svg_260" class="st28"/>
    <tspan id="svg_261" class="st28">,</tspan>
    <tspan id="svg_262" class="st11">告知客户端已经切换到协商过的加密套件状态</tspan>
    <tspan id="svg_263" class="st11">，</tspan>
    <tspan id="svg_264" class="st11" dy="1.331em" x="321.418005">准备使用加密套件和</tspan>
    <tspan id="svg_265" class="st28">MS</tspan>
    <tspan id="svg_266" class="st11">加密数据了</tspan></text>
  </g>
  <g id="shape73-446">
   <title transform="translate(578.2680053710938,-381.364013671875) ">消息.73</title>
   <desc transform="translate(578.2680053710938,-381.364013671875) ">结束SSL握手</desc>
   <path id="svg_267" class="st18" d="m578.268005,766.095986l-382.7,0"/>
   <rect id="svg_268" class="st23" height="10.6501" width="42.7146" y="760.775986" x="361.320005"/>
   <text id="svg_269" class="st21" y="768.765986" x="361.318005">结束
    <tspan id="svg_270" class="st27">SSL</tspan>握手</text>
  </g>
  <g id="shape76-454">
   <title transform="translate(650.4390258789062,-535.5349731445312) ">矩形</title>
   <desc transform="translate(650.4390258789062,-535.5349731445312) ">RNc</desc>
   <g class="st1" transform="matrix(1,0,0,1,0.345598,1.97279) " id="shadow76-455">
    <rect id="svg_271" class="st2" height="19.1339" width="25.5118" y="599.885027" x="650.439026"/>
   </g>
   <rect id="svg_272" class="st3" height="19.1339" width="25.5118" y="599.885027" x="650.439026"/>
   <text id="svg_273" class="st38" y="612.445027" x="655.139026">RNc</text>
  </g>
  <g id="shape77-460">
   <title transform="translate(626.2329711914062,-535.5349731445312) ">矩形.77</title>
   <desc transform="translate(626.2329711914062,-535.5349731445312) ">RNs</desc>
   <g class="st1" transform="matrix(1,0,0,1,0.345598,1.97279) " id="shadow77-461">
    <rect id="svg_274" class="st2" height="19.1339" width="25.5118" y="599.885027" x="626.232971"/>
   </g>
   <rect id="svg_275" class="st3" height="19.1339" width="25.5118" y="599.885027" x="626.232971"/>
   <text id="svg_276" class="st38" y="612.445027" x="631.092971">RNs</text>
  </g>
  <g id="shape78-466">
   <title transform="translate(587.1069946289062,-535.5349731445312) ">矩形.78</title>
   <desc transform="translate(587.1069946289062,-535.5349731445312) ">PMS</desc>
   <g class="st1" transform="matrix(1,0,0,1,0.345598,1.97279) " id="shadow78-467">
    <rect id="svg_277" class="st2" height="19.1339" width="37.8201" y="599.885027" x="587.106995"/>
   </g>
   <rect id="svg_278" class="st3" height="19.1339" width="37.8201" y="599.885027" x="587.106995"/>
   <text id="svg_279" class="st38" y="612.445027" x="596.856995">PMS</text>
  </g>
  <g id="shape79-472">
   <title transform="translate(70.86609649658203,-535.5349731445312) ">矩形.79</title>
   <desc transform="translate(70.86609649658203,-535.5349731445312) ">RNc</desc>
   <g class="st1" transform="matrix(1,0,0,1,0.345598,1.97279) " id="shadow79-473">
    <rect id="svg_280" class="st2" height="19.1339" width="25.5118" y="599.885027" x="70.866096"/>
   </g>
   <rect id="svg_281" class="st3" height="19.1339" width="25.5118" y="599.885027" x="70.866096"/>
   <text id="svg_282" class="st38" y="612.445027" x="75.566096">RNc</text>
  </g>
  <g id="shape80-478">
   <title transform="translate(96.60169982910156,-535.5349731445312) ">矩形.80</title>
   <desc transform="translate(96.60169982910156,-535.5349731445312) ">RNs</desc>
   <g class="st1" transform="matrix(1,0,0,1,0.345598,1.97279) " id="shadow80-479">
    <rect id="svg_283" class="st2" height="19.1339" width="25.5118" y="599.885027" x="96.6017"/>
   </g>
   <rect id="svg_284" class="st3" height="19.1339" width="25.5118" y="599.885027" x="96.6017"/>
   <text id="svg_285" class="st38" y="612.445027" x="101.4617">RNs</text>
  </g>
  <g id="shape81-484">
   <title transform="translate(122.33699798583984,-535.5349731445312) ">矩形.81</title>
   <desc transform="translate(122.33699798583984,-535.5349731445312) ">PMS</desc>
   <g class="st1" transform="matrix(1,0,0,1,0.345598,1.97279) " id="shadow81-485">
    <rect id="svg_286" class="st2" height="19.1339" width="37.8201" y="599.885027" x="122.336998"/>
   </g>
   <rect id="svg_287" class="st3" height="19.1339" width="37.8201" y="599.885027" x="122.336998"/>
   <text id="svg_288" class="st38" y="612.445027" x="132.086998">PMS</text>
  </g>
  <g id="shape83-490">
   <title transform="translate(144.56700134277344,-445.8900146484375) ">圆形</title>
   <desc transform="translate(144.56700134277344,-445.8900146484375) ">MS</desc>
   <g class="st1" transform="matrix(1,0,0,1,0.345598,1.97279) " id="shadow83-491">
    <path id="svg_289" class="st2" d="m144.567001,695.909985a12.7559,12.7559 0 0 1 25.51,0a12.7559,12.7559 0 1 1 -25.51,0z"/>
   </g>
   <path id="svg_290" class="st39" d="m144.567001,695.909985a12.7559,12.7559 0 0 1 25.51,0a12.7559,12.7559 0 1 1 -25.51,0z"/>
   <text id="svg_291" class="st40" y="698.909985" x="150.747001">MS</text>
  </g>
  <g id="shape84-496">
   <title transform="translate(599.416015625,-445.8900146484375) ">圆形.84</title>
   <desc transform="translate(599.416015625,-445.8900146484375) ">MS</desc>
   <g class="st1" transform="matrix(1,0,0,1,0.345598,1.97279) " id="shadow84-497">
    <path id="svg_292" class="st2" d="m599.416016,695.909985a12.7559,12.7559 0 0 1 25.51,0a12.7559,12.7559 0 1 1 -25.51,0z"/>
   </g>
   <path id="svg_293" class="st39" d="m599.416016,695.909985a12.7559,12.7559 0 0 1 25.51,0a12.7559,12.7559 0 1 1 -25.51,0z"/>
   <text id="svg_294" class="st40" y="698.909985" x="605.596016">MS</text>
  </g>
  <g id="shape85-502">
   <title transform="translate(147.40199279785156,-975.260009765625) ">矩形.85</title>
   <desc transform="translate(147.40199279785156,-975.260009765625) ">RNc</desc>
   <g class="st1" transform="matrix(1,0,0,1,0.345598,1.97279) " id="shadow85-503">
    <rect id="svg_295" class="st2" height="19.1339" width="25.5118" y="160.15999" x="147.401993"/>
   </g>
   <rect id="svg_296" class="st3" height="19.1339" width="25.5118" y="160.15999" x="147.401993"/>
   <text id="svg_297" class="st38" y="172.71999" x="152.101993">RNc</text>
  </g>
  <g id="shape86-508">
   <title transform="translate(610.8660278320312,-894.4719848632812) ">矩形.86</title>
   <desc transform="translate(610.8660278320312,-894.4719848632812) ">RNs</desc>
   <g class="st1" transform="matrix(1,0,0,1,0.345598,1.97279) " id="shadow86-509">
    <rect id="svg_298" class="st2" height="19.1339" width="25.5118" y="240.948015" x="610.866028"/>
   </g>
   <rect id="svg_299" class="st3" height="19.1339" width="25.5118" y="240.948015" x="610.866028"/>
   <text id="svg_300" class="st38" y="253.508015" x="615.726028">RNs</text>
  </g>
  <g id="shape88-514">
   <title transform="translate(301.5429992675781,-559.2760009765625) ">工作表.88</title>
   <desc transform="translate(301.5429992675781,-559.2760009765625) ">协议中称作ClientKeyExchange过程</desc>
   <rect id="svg_301" class="st41" height="20" width="152" y="575.273999" x="301.542999"/>
   <text id="svg_302" class="st42" y="588.273999" x="311.562999">协议中称作
    <tspan id="svg_303" class="st27">ClientKeyExchange</tspan>过程</text>
  </g>
  <g id="shape93-518">
   <title transform="translate(187.08700561523438,-348.9150085449219) ">普通双箭头</title>
   <desc transform="translate(187.08700561523438,-348.9150085449219) ">Application data</desc>
   <g class="st1" transform="matrix(1,0,0,1,0.345598,1.97279) " id="shadow93-519">
    <path id="svg_304" class="st43" d="m187.087006,805.634991l11.34,-11.34l0,5.67l368.5,0l0,-5.67l11.34,11.34l-11.34,11.34l0,-5.67l-368.5,0l0,5.67l-11.34,-11.34z"/>
   </g>
   <path id="svg_305" class="st44" d="m187.087006,805.634991l11.34,-11.34l0,5.67l368.5,0l0,-5.67l11.34,11.34l-11.34,11.34l0,-5.67l-368.5,0l0,5.67l-11.34,-11.34z"/>
   <text id="svg_306" class="st38" y="808.634991" x="349.417006">Application data</text>
  </g>
 </g>
 <g>
  <title>background</title>
  <rect fill="none" id="canvas_background" height="852" width="782" y="-1" x="-1"/>
 </g>
</svg>